<?xml version="1.0" encoding="UTF-8" standalone="no"?>
<!DOCTYPE svg PUBLIC "-//W3C//DTD SVG 1.1//EN"
 "http://www.w3.org/Graphics/SVG/1.1/DTD/svg11.dtd">
<!-- Generated by graphviz version 2.30.1 (20130214.1330)
 -->
<!-- Title: %3 Pages: 1 -->
<svg width="1728pt" height="528pt"
 viewBox="0.00 0.00 1728.00 528.34" xmlns="http://www.w3.org/2000/svg" xmlns:xlink="http://www.w3.org/1999/xlink">
<g id="graph0" class="graph" transform="scale(1.77413 1.77413) rotate(0) translate(4 293.8)">
<title>%3</title>
<g id="a_graph0"><a xlink:title=" ">
<polygon fill="aliceblue" stroke="aliceblue" points="-4,5 -4,-293.8 971,-293.8 971,5 -4,5"/>
</a>
</g>
<!-- resources -->
<g id="node1" class="node"><title>resources</title>
<g id="a_node1"><a xlink:title=" ">
<polygon fill="none" stroke="none" points="754,-260.078 604,-260.078 604,-229.078 754,-229.078 754,-260.078"/>
<polygon fill="none" stroke="none" points="605,-246.578 605,-258.578 615,-258.578 615,-246.578 605,-246.578"/>
<image xlink:href="www/img/noise.png" width="9px" height="9px" preserveAspectRatio="xMinYMin meet" x="606" y="-246.578"/>
<polygon fill="none" stroke="none" points="615,-241.578 615,-258.578 623,-258.578 623,-241.578 615,-241.578"/>
<text text-anchor="start" x="617" y="-248.078" font-family="Arial" font-size="10.00"> </text>
<text text-anchor="start" x="619" y="-234.578" font-family="Arial" font-size="10.00"> </text>
<text text-anchor="start" x="635" y="-239.078" font-family="Arial" font-size="20.00">Resources</text>
<image xlink:href="www/img/circle-shape-outline.png" width="9px" height="9px" preserveAspectRatio="xMinYMin meet" x="743" y="-257.578"/>
<polygon fill="none" stroke="white" points="604,-229.078 604,-260.078 754,-260.078 754,-229.078 604,-229.078"/>
</a>
</g>
</g>
<!-- outcome -->
<g id="node2" class="node"><title>outcome</title>
<g id="a_node2"><a xlink:title=" ">
<polygon fill="none" stroke="none" points="966,-144.078 812,-144.078 812,-111.078 966,-111.078 966,-144.078"/>
<polygon fill="none" stroke="none" points="813,-129.578 813,-142.578 823,-142.578 823,-129.578 813,-129.578"/>
<image xlink:href="www/img/noise.png" width="9px" height="9px" preserveAspectRatio="xMinYMin meet" x="814" y="-129.578"/>
<polygon fill="none" stroke="none" points="823,-124.578 823,-142.578 831,-142.578 831,-124.578 823,-124.578"/>
<text text-anchor="start" x="825" y="-131.578" font-family="Arial" font-size="10.00"> </text>
<text text-anchor="start" x="827" y="-117.578" font-family="Arial" font-size="10.00"> </text>
<text text-anchor="start" x="843" y="-122.078" font-family="Arial" font-size="20.00">Outcome</text>
<text text-anchor="start" x="932" y="-136.778" font-family="Arial" font-size="6.00">Benefit</text>
<defs>
<linearGradient id="l_0" gradientUnits="userSpaceOnUse" x1="941" y1="-123.578" x2="941" y2="-133.578" >
<stop offset="0" style="stop-color:#ffed91;stop-opacity:1.;"/>
<stop offset="1" style="stop-color:#ffd700;stop-opacity:1.;"/>
</linearGradient>
</defs>
<polygon fill="url(#l_0)" stroke="none" points="931,-123.578 931,-133.578 951,-133.578 951,-123.578 931,-123.578"/>
<polygon fill="none" stroke="none" points="931,-123.578 931,-133.578 951,-133.578 951,-123.578 931,-123.578"/>
<text text-anchor="start" x="947" y="-127.778" font-family="Arial" font-size="6.00"> </text>
<defs>
<linearGradient id="l_1" gradientUnits="userSpaceOnUse" x1="941" y1="-113.578" x2="941" y2="-123.578" >
<stop offset="0" style="stop-color:#ffffff;stop-opacity:1.;"/>
<stop offset="1" style="stop-color:#ffed91;stop-opacity:1.;"/>
</linearGradient>
</defs>
<polygon fill="url(#l_1)" stroke="none" points="931,-113.578 931,-123.578 951,-123.578 951,-113.578 931,-113.578"/>
<polygon fill="none" stroke="none" points="931,-113.578 931,-123.578 951,-123.578 951,-113.578 931,-113.578"/>
<text text-anchor="start" x="947" y="-117.778" font-family="Arial" font-size="6.00"> </text>
<image xlink:href="www/img/adjust-contrast.png" width="9px" height="9px" preserveAspectRatio="xMinYMin meet" x="955" y="-141.578"/>
<polygon fill="none" stroke="white" points="812,-111.078 812,-144.078 966,-144.078 966,-111.078 812,-111.078"/>
</a>
</g>
</g>
<!-- resources&#45;&gt;outcome -->
<g id="edge1" class="edge"><title>resources&#45;&gt;outcome:port:w</title>
<g id="a_edge1"><a xlink:title=" ">
<path fill="none" stroke="indianred" stroke-width="1.5" d="M694.691,-229.144C721.488,-201.623 778.615,-145.957 812.047,-135.347"/>
<polygon fill="indianred" stroke="indianred" points="812.767,-138.774 822,-133.578 811.542,-131.882 812.767,-138.774"/>
</a>
</g>
</g>
<!-- knowledge -->
<g id="node3" class="node"><title>knowledge</title>
<g id="a_node3"><a xlink:title=" ">
<polygon fill="none" stroke="none" points="754.5,-157.078 603.5,-157.078 603.5,-126.078 754.5,-126.078 754.5,-157.078"/>
<polygon fill="none" stroke="none" points="605,-143.578 605,-155.578 615,-155.578 615,-143.578 605,-143.578"/>
<image xlink:href="www/img/noise.png" width="9px" height="9px" preserveAspectRatio="xMinYMin meet" x="606" y="-143.578"/>
<polygon fill="none" stroke="none" points="615,-138.578 615,-155.578 623,-155.578 623,-138.578 615,-138.578"/>
<text text-anchor="start" x="617" y="-145.078" font-family="Arial" font-size="10.00"> </text>
<text text-anchor="start" x="619" y="-131.578" font-family="Arial" font-size="10.00"> </text>
<text text-anchor="start" x="635" y="-136.078" font-family="Arial" font-size="20.00">Knowledge</text>
<image xlink:href="www/img/adjust-contrast.png" width="9px" height="9px" preserveAspectRatio="xMinYMin meet" x="744" y="-154.578"/>
<polygon fill="none" stroke="white" points="603.5,-126.078 603.5,-157.078 754.5,-157.078 754.5,-126.078 603.5,-126.078"/>
</a>
</g>
</g>
<!-- knowledge&#45;&gt;outcome -->
<g id="edge2" class="edge"><title>knowledge&#45;&gt;outcome:port:w</title>
<g id="a_edge2"><a xlink:title=" ">
<path fill="none" stroke="indianred" stroke-width="1.5" d="M754.757,-135.785C773.131,-134.725 792.97,-133.876 811.897,-133.642"/>
<polygon fill="indianred" stroke="indianred" points="812.022,-137.142 822,-133.578 811.978,-130.142 812.022,-137.142"/>
</a>
</g>
</g>
<!-- existingknowledge -->
<g id="node4" class="node"><title>existingknowledge</title>
<g id="a_node4"><a xlink:title=" ">
<polygon fill="none" stroke="none" points="520.5,-271.078 295.5,-271.078 295.5,-240.078 520.5,-240.078 520.5,-271.078"/>
<polygon fill="none" stroke="none" points="297,-257.578 297,-269.578 307,-269.578 307,-257.578 297,-257.578"/>
<image xlink:href="www/img/noise.png" width="9px" height="9px" preserveAspectRatio="xMinYMin meet" x="298" y="-257.578"/>
<polygon fill="none" stroke="none" points="307,-252.578 307,-269.578 315,-269.578 315,-252.578 307,-252.578"/>
<text text-anchor="start" x="309" y="-259.078" font-family="Arial" font-size="10.00"> </text>
<text text-anchor="start" x="311" y="-245.578" font-family="Arial" font-size="10.00"> </text>
<text text-anchor="start" x="327" y="-250.078" font-family="Arial" font-size="20.00">Existing knowledge</text>
<image xlink:href="www/img/circle-shape-outline.png" width="9px" height="9px" preserveAspectRatio="xMinYMin meet" x="510" y="-268.578"/>
<polygon fill="none" stroke="white" points="295.5,-240.078 295.5,-271.078 520.5,-271.078 520.5,-240.078 295.5,-240.078"/>
</a>
</g>
</g>
<!-- existingknowledge&#45;&gt;knowledge -->
<g id="edge3" class="edge"><title>existingknowledge&#45;&gt;knowledge:port:w</title>
<g id="a_edge3"><a xlink:title=" ">
<path fill="none" stroke="indianred" stroke-width="1.5" d="M435.031,-240.104C479.969,-213.624 570.511,-161.354 604.12,-149.852"/>
<polygon fill="indianred" stroke="indianred" points="605.04,-153.232 614,-147.578 603.47,-146.41 605.04,-153.232"/>
</a>
</g>
</g>
<!-- workshopscontrolfull -->
<g id="node5" class="node"><title>workshopscontrolfull</title>
<g id="a_node5"><a xlink:title=" ">
<polygon fill="none" stroke="none" points="492,-168.078 324,-168.078 324,-137.078 492,-137.078 492,-168.078"/>
<polygon fill="none" stroke="none" points="325,-154.578 325,-166.578 335,-166.578 335,-154.578 325,-154.578"/>
<image xlink:href="www/img/noise.png" width="9px" height="9px" preserveAspectRatio="xMinYMin meet" x="326" y="-154.578"/>
<polygon fill="none" stroke="none" points="335,-149.578 335,-166.578 343,-166.578 343,-149.578 335,-149.578"/>
<text text-anchor="start" x="337" y="-156.078" font-family="Arial" font-size="10.00"> </text>
<text text-anchor="start" x="339" y="-142.578" font-family="Arial" font-size="10.00"> </text>
<text text-anchor="start" x="355" y="-147.078" font-family="Arial" font-size="20.00">Workshops &#160;</text>
<image xlink:href="www/img/circular-shape-silhouette.png" width="9px" height="9px" preserveAspectRatio="xMinYMin meet" x="481" y="-165.578"/>
<polygon fill="none" stroke="white" points="324,-137.078 324,-168.078 492,-168.078 492,-137.078 324,-137.078"/>
</a>
</g>
</g>
<!-- workshopscontrolfull&#45;&gt;knowledge -->
<g id="edge4" class="edge"><title>workshopscontrolfull&#45;&gt;knowledge:port:w</title>
<g id="a_edge4"><a xlink:title=" ">
<path fill="none" stroke="indianred" stroke-width="1.5" d="M492.274,-149.626C526.31,-148.637 566.364,-147.745 603.584,-147.599"/>
<polygon fill="indianred" stroke="indianred" points="604.007,-151.098 614,-147.578 603.993,-144.098 604.007,-151.098"/>
</a>
</g>
</g>
<!-- workshopdesigncontrolfull -->
<g id="node6" class="node"><title>workshopdesigncontrolfull</title>
<g id="a_node6"><a xlink:title=" ">
<polygon fill="none" stroke="none" points="219.5,-182.078 0.5,-182.078 0.5,-151.078 219.5,-151.078 219.5,-182.078"/>
<polygon fill="none" stroke="none" points="2,-168.578 2,-180.578 8,-180.578 8,-168.578 2,-168.578"/>
<image xlink:href="www/img/input.png" width="5px" height="9px" preserveAspectRatio="xMinYMin meet" x="3" y="-168.578"/>
<polygon fill="none" stroke="none" points="8,-163.578 8,-180.578 16,-180.578 16,-163.578 8,-163.578"/>
<text text-anchor="start" x="10" y="-170.078" font-family="Arial" font-size="10.00"> </text>
<text text-anchor="start" x="12" y="-156.578" font-family="Arial" font-size="10.00"> </text>
<text text-anchor="start" x="28" y="-161.078" font-family="Arial" font-size="20.00">Workshop design &#160;</text>
<image xlink:href="www/img/circular-shape-silhouette.png" width="9px" height="9px" preserveAspectRatio="xMinYMin meet" x="209" y="-179.578"/>
<polygon fill="none" stroke="white" points="0.5,-151.078 0.5,-182.078 219.5,-182.078 219.5,-151.078 0.5,-151.078"/>
</a>
</g>
</g>
<!-- workshopdesigncontrolfull&#45;&gt;workshopscontrolfull -->
<g id="edge5" class="edge"><title>workshopdesigncontrolfull&#45;&gt;workshopscontrolfull:port:w</title>
<g id="a_edge5"><a xlink:title=" ">
<path fill="none" stroke="indianred" stroke-width="1.5" d="M219.575,-161.12C252.673,-159.836 289.422,-158.783 323.871,-158.605"/>
<polygon fill="indianred" stroke="indianred" points="324.009,-162.104 334,-158.578 323.991,-155.104 324.009,-162.104"/>
</a>
</g>
</g>
<!-- motivation -->
<g id="node7" class="node"><title>motivation</title>
<g id="a_node7"><a xlink:title=" ">
<polygon fill="none" stroke="none" points="761.5,-53.078 596.5,-53.078 596.5,-20.078 761.5,-20.078 761.5,-53.078"/>
<polygon fill="none" stroke="none" points="598,-38.578 598,-51.578 608,-51.578 608,-38.578 598,-38.578"/>
<image xlink:href="www/img/noise.png" width="9px" height="9px" preserveAspectRatio="xMinYMin meet" x="599" y="-38.578"/>
<polygon fill="none" stroke="none" points="608,-33.578 608,-51.578 616,-51.578 616,-33.578 608,-33.578"/>
<text text-anchor="start" x="610" y="-40.578" font-family="Arial" font-size="10.00"> </text>
<text text-anchor="start" x="612" y="-26.578" font-family="Arial" font-size="10.00"> </text>
<text text-anchor="start" x="628" y="-31.078" font-family="Arial" font-size="20.00">Motivation</text>
<text text-anchor="start" x="728" y="-45.778" font-family="Arial" font-size="6.00">Benefit</text>
<defs>
<linearGradient id="l_2" gradientUnits="userSpaceOnUse" x1="737" y1="-32.578" x2="737" y2="-42.578" >
<stop offset="0" style="stop-color:#ffed91;stop-opacity:1.;"/>
<stop offset="1" style="stop-color:#ffd700;stop-opacity:1.;"/>
</linearGradient>
</defs>
<polygon fill="url(#l_2)" stroke="none" points="727,-32.578 727,-42.578 747,-42.578 747,-32.578 727,-32.578"/>
<polygon fill="none" stroke="none" points="727,-32.578 727,-42.578 747,-42.578 747,-32.578 727,-32.578"/>
<text text-anchor="start" x="743" y="-36.778" font-family="Arial" font-size="6.00"> </text>
<defs>
<linearGradient id="l_3" gradientUnits="userSpaceOnUse" x1="737" y1="-22.578" x2="737" y2="-32.578" >
<stop offset="0" style="stop-color:#ffffff;stop-opacity:1.;"/>
<stop offset="1" style="stop-color:#ffed91;stop-opacity:1.;"/>
</linearGradient>
</defs>
<polygon fill="url(#l_3)" stroke="none" points="727,-22.578 727,-32.578 747,-32.578 747,-22.578 727,-22.578"/>
<polygon fill="none" stroke="none" points="727,-22.578 727,-32.578 747,-32.578 747,-22.578 727,-22.578"/>
<text text-anchor="start" x="743" y="-26.778" font-family="Arial" font-size="6.00"> </text>
<image xlink:href="www/img/adjust-contrast.png" width="9px" height="9px" preserveAspectRatio="xMinYMin meet" x="751" y="-50.578"/>
<polygon fill="none" stroke="white" points="596.5,-20.078 596.5,-53.078 761.5,-53.078 761.5,-20.078 596.5,-20.078"/>
</a>
</g>
</g>
<!-- motivation&#45;&gt;outcome -->
<g id="edge6" class="edge"><title>motivation&#45;&gt;outcome:port:w</title>
<g id="a_edge6"><a xlink:title=" ">
<path fill="none" stroke="indianred" stroke-width="1.5" d="M692.493,-53.0327C713.699,-79.0316 759.559,-127.268 811.821,-133.014"/>
<polygon fill="indianred" stroke="indianred" points="811.822,-136.519 822,-133.578 812.209,-129.53 811.822,-136.519"/>
</a>
</g>
</g>
<!-- personalvisionforfuture -->
<g id="node8" class="node"><title>personalvisionforfuture</title>
<g id="a_node8"><a xlink:title=" ">
<polygon fill="none" stroke="none" points="546,-66.078 270,-66.078 270,-35.078 546,-35.078 546,-66.078"/>
<polygon fill="none" stroke="none" points="271,-52.578 271,-64.578 281,-64.578 281,-52.578 271,-52.578"/>
<image xlink:href="www/img/noise.png" width="9px" height="9px" preserveAspectRatio="xMinYMin meet" x="272" y="-52.578"/>
<polygon fill="none" stroke="none" points="281,-47.578 281,-64.578 289,-64.578 289,-47.578 281,-47.578"/>
<text text-anchor="start" x="283" y="-54.078" font-family="Arial" font-size="10.00"> </text>
<text text-anchor="start" x="285" y="-40.578" font-family="Arial" font-size="10.00"> </text>
<text text-anchor="start" x="301" y="-45.078" font-family="Arial" font-size="20.00">Personal vision for future</text>
<image xlink:href="www/img/circle-shape-outline.png" width="9px" height="9px" preserveAspectRatio="xMinYMin meet" x="535" y="-63.578"/>
<polygon fill="none" stroke="white" points="270,-35.078 270,-66.078 546,-66.078 546,-35.078 270,-35.078"/>
</a>
</g>
</g>
<!-- personalvisionforfuture&#45;&gt;motivation -->
<g id="edge7" class="edge"><title>personalvisionforfuture&#45;&gt;motivation:port:w</title>
<g id="a_edge7"><a xlink:title=" ">
<path fill="none" stroke="indianred" stroke-width="1.5" d="M546.107,-43.5993C563.008,-43.0848 580.169,-42.722 596.755,-42.6125"/>
<polygon fill="indianred" stroke="indianred" points="597.012,-46.1118 607,-42.578 596.988,-39.1118 597.012,-46.1118"/>
</a>
</g>
</g>
</g>
</svg>
